<svg width="14" height="48" viewBox="0 0 14 48" fill="none" xmlns="http://www.w3.org/2000/svg">
<path d="M13.7273 0.454544L12.5455 32.4545H2.18182L1 0.454544H13.7273ZM7.36364 47.7273C5.60606 47.7273 4.09849 47.1136 2.84091 45.8864C1.59849 44.6439 0.984849 43.1364 1 41.3636C0.984849 39.6364 1.59849 38.1591 2.84091 36.9318C4.09849 35.7045 5.60606 35.0909 7.36364 35.0909C9.0303 35.0909 10.5 35.7045 11.7727 36.9318C13.0606 38.1591 13.7121 39.6364 13.7273 41.3636C13.7121 42.5455 13.4015 43.6212 12.7955 44.5909C12.2045 45.5455 11.4318 46.3106 10.4773 46.8864C9.52273 47.447 8.48485 47.7273 7.36364 47.7273Z" fill="white"/>
</svg>
