<svg width="10" height="10" viewBox="0 0 10 10" fill="none" xmlns="http://www.w3.org/2000/svg">
<path d="M0.99379 9.52381C0.720498 9.52381 0.48646 9.43048 0.291678 9.24381C0.0968952 9.05714 -0.000330419 8.83302 8.43624e-07 8.57143V1.90476C8.43624e-07 1.64286 0.0973922 1.41857 0.292175 1.2319C0.486957 1.04524 0.720829 0.952064 0.99379 0.952381H1.49068V0H2.48447V0.952381H6.45963V0H7.45342V0.952381H7.95031C8.2236 0.952381 8.45764 1.04571 8.65242 1.23238C8.84721 1.41905 8.94443 1.64317 8.9441 1.90476V4.7619H7.95031V3.80952H0.99379V8.57143H4.47205V9.52381H0.99379ZM9.50311 7.14286L8.4472 6.13095L8.80745 5.78571C8.89855 5.69841 9.01449 5.65476 9.15528 5.65476C9.29607 5.65476 9.41201 5.69841 9.50311 5.78571L9.86335 6.13095C9.95445 6.21825 10 6.32936 10 6.46429C10 6.59921 9.95445 6.71032 9.86335 6.79762L9.50311 7.14286ZM5.46584 10V8.9881L8.09938 6.46429L9.15528 7.47619L6.52174 10H5.46584ZM0.99379 2.85714H7.95031V1.90476H0.99379V2.85714Z" fill="#F8F8F8"/>
</svg>
