<svg width="16" height="16" viewBox="0 0 16 16" fill="none" xmlns="http://www.w3.org/2000/svg">
<path d="M4.44922 7.33203C4.29071 7.17352 4.20166 6.95854 4.20166 6.73438C4.20166 6.51021 4.29071 6.29523 4.44922 6.13672C4.60773 5.97821 4.82271 5.88916 5.04688 5.88916C5.27104 5.88916 5.48602 5.97821 5.64453 6.13672L7.15625 7.64844V1.8125C7.15625 1.58872 7.24514 1.37411 7.40338 1.21588C7.56161 1.05764 7.77622 0.96875 8 0.96875C8.22378 0.96875 8.43839 1.05764 8.59662 1.21588C8.75485 1.37411 8.84375 1.58872 8.84375 1.8125V7.64844L10.3555 6.13672C10.514 5.97821 10.729 5.88916 10.9531 5.88916C11.1773 5.88916 11.3923 5.97821 11.5508 6.13672C11.7093 6.29523 11.7983 6.51021 11.7983 6.73438C11.7983 6.95854 11.7093 7.17352 11.5508 7.33203L8.59766 10.2852C8.43843 10.4423 8.22372 10.5304 8 10.5304C7.77628 10.5304 7.56157 10.4423 7.40234 10.2852L4.44922 7.33203ZM14.1875 8.84375C13.9637 8.84375 13.7491 8.93265 13.5909 9.09088C13.4326 9.24911 13.3438 9.46372 13.3438 9.6875V13.3438H2.65625V9.6875C2.65625 9.46372 2.56736 9.24911 2.40912 9.09088C2.25089 8.93265 2.03628 8.84375 1.8125 8.84375C1.58872 8.84375 1.37411 8.93265 1.21588 9.09088C1.05764 9.24911 0.96875 9.46372 0.96875 9.6875V13.625C0.970598 13.9974 1.11935 14.354 1.38267 14.6173C1.646 14.8807 2.00261 15.0294 2.375 15.0312H13.625C13.9974 15.0294 14.354 14.8807 14.6173 14.6173C14.8807 14.354 15.0294 13.9974 15.0312 13.625V9.6875C15.0312 9.46372 14.9424 9.24911 14.7841 9.09088C14.6259 8.93265 14.4113 8.84375 14.1875 8.84375Z" fill="#1A74E2"/>
</svg>
