<svg width="15" height="15" viewBox="0 0 10 10" fill="none" xmlns="http://www.w3.org/2000/svg">
<g clip-path="url(#clip0_237_80)">
<path d="M8.29271 10.3889H2.70716C2.58958 10.3861 2.4737 10.3602 2.36614 10.3126C2.25858 10.2651 2.16144 10.1968 2.08029 10.1116C1.99913 10.0265 1.93555 9.92621 1.89316 9.8165C1.85078 9.70679 1.83043 9.58981 1.83327 9.47223V3.4314H2.44438V9.47223C2.44146 9.50957 2.44596 9.54712 2.4576 9.58271C2.46925 9.61831 2.48781 9.65125 2.51223 9.67965C2.53665 9.70805 2.56645 9.73133 2.5999 9.74818C2.63335 9.76502 2.6698 9.77508 2.70716 9.77779H8.29271C8.33007 9.77508 8.36652 9.76502 8.39997 9.74818C8.43343 9.73133 8.46322 9.70805 8.48764 9.67965C8.51206 9.65125 8.53063 9.61831 8.54227 9.58271C8.55392 9.54712 8.55841 9.50957 8.55549 9.47223V3.4314H9.1666V9.47223C9.16945 9.58981 9.14909 9.70679 9.10671 9.8165C9.06432 9.92621 9.00074 10.0265 8.91958 10.1116C8.83843 10.1968 8.7413 10.2651 8.63374 10.3126C8.52618 10.3602 8.41029 10.3861 8.29271 10.3889Z" fill="red"/>
<path d="M9.40495 2.75H1.52772C1.44669 2.75 1.36897 2.7178 1.31166 2.6605C1.25436 2.6032 1.22217 2.52548 1.22217 2.44444C1.22217 2.3634 1.25436 2.28568 1.31166 2.22838C1.36897 2.17108 1.44669 2.13889 1.52772 2.13889H9.40495C9.48598 2.13889 9.5637 2.17108 9.62101 2.22838C9.67831 2.28568 9.7105 2.3634 9.7105 2.44444C9.7105 2.52548 9.67831 2.6032 9.62101 2.6605C9.5637 2.7178 9.48598 2.75 9.40495 2.75Z" fill="red"/>
<path d="M6.4165 3.97223H7.02762V8.55556H6.4165V3.97223Z" fill="red"/>
<path d="M3.97217 3.97223H4.58328V8.55556H3.97217V3.97223Z" fill="red"/>
<path d="M7.02772 1.79056H6.44717V1.22223H4.55272V1.79056H3.97217V1.22223C3.97197 1.06531 4.03215 0.914325 4.14022 0.800559C4.2483 0.686793 4.396 0.61896 4.55272 0.611115H6.44717C6.60389 0.61896 6.75159 0.686793 6.85967 0.800559C6.96775 0.914325 7.02792 1.06531 7.02772 1.22223V1.79056Z" fill="red"/>
</g>
<defs>
<clipPath id="clip0_237_80">
<rect width="11" height="11" fill="#6F4E37"/>
</clipPath>
</defs>
</svg>
